<?xml version="1.0" standalone="no"?>
<!DOCTYPE svg PUBLIC "-//W3C//DTD SVG 20010904//EN"
 "http://www.w3.org/TR/2001/REC-SVG-20010904/DTD/svg10.dtd">
<svg version="1.0" xmlns="http://www.w3.org/2000/svg"
 width="70.000000pt" height="70.000000pt" viewBox="0 0 70.000000 70.000000"
 preserveAspectRatio="xMidYMid meet">
<metadata>
Created by potrace 1.14, written by Peter Selinger 2001-2017
</metadata>
<g transform="translate(0.000000,70.000000) scale(0.100000,-0.100000)"
fill="#000000" stroke="none">
<path d="M368 652 c-23 -8 -49 -19 -55 -24 -17 -13 -43 -3 -43 17 0 15 -24 16
-46 2 -7 -4 -11 -29 -10 -59 2 -33 -6 -75 -21 -117 -32 -87 -31 -86 -61 -49
-15 18 -31 36 -37 40 -18 13 -54 9 -63 -8 -10 -19 -4 -62 10 -70 7 -4 8 5 3
26 -8 36 5 51 36 43 18 -5 27 -23 11 -23 -4 0 -16 -16 -26 -35 -19 -35 -50
-47 -59 -22 -3 6 -6 -4 -6 -23 -1 -41 13 -60 46 -60 16 0 24 7 29 25 4 18 13
25 30 25 34 0 31 -31 -6 -52 -20 -11 -30 -25 -30 -40 0 -28 -28 -55 -52 -50
-13 2 -18 -3 -18 -17 0 -15 5 -19 21 -16 12 2 28 10 35 16 20 17 28 5 48 -71
20 -76 40 -110 63 -110 14 0 228 58 431 116 83 24 87 37 52 169 -20 74 -36
116 -51 127 -15 13 -21 31 -23 69 -3 64 25 102 85 120 31 10 39 17 39 36 0 21
-4 23 -22 18 -33 -10 -98 -54 -98 -66 0 -6 -16 5 -35 25 -19 20 -38 36 -42 36
-5 1 -27 4 -50 9 -28 5 -54 3 -85 -7z m96 -52 c14 -5 32 -20 41 -33 17 -26 26
-90 15 -107 -5 -8 -141 81 -184 121 -23 21 81 37 128 19z m-65 -92 c47 -34 88
-66 89 -70 2 -4 10 -8 18 -8 34 0 9 -21 -43 -36 -32 -9 -87 -24 -122 -35 -35
-10 -65 -19 -67 -19 -11 0 -3 207 8 218 19 19 26 16 117 -50z m-183 -124 c-2
-47 -6 -59 -21 -65 -42 -16 -43 -4 -8 77 9 21 16 43 15 47 -2 5 2 6 7 3 4 -3
8 -31 7 -62z m-79 11 c0 -8 -9 -17 -19 -21 -24 -7 -30 -2 -22 20 8 20 41 21
41 1z m13 -35 c0 -5 -10 -10 -22 -10 -19 0 -20 2 -8 10 19 13 30 13 30 0z
m-90 -36 c0 -9 -7 -14 -17 -12 -25 5 -28 28 -4 28 12 0 21 -6 21 -16z"/>
</g>
</svg>
